<svg width="360" height="377" viewBox="0 0 360 377" fill="none" xmlns="http://www.w3.org/2000/svg">
<g filter="url(#filter0_d)">
<path d="M-133.227 112.286C-190.131 48.2736 -208.769 -152.668 -221.23 -212.208C-194.23 -286.98 374.864 -247.517 468.329 -176.9C561.793 -106.282 526.484 -127.052 551.408 -73.0503C576.332 -19.0487 424.712 358.963 374.864 367.271C325.017 375.579 178.562 354.149 118.002 277.341C59.0007 202.511 -43.9339 212.734 -133.227 112.286Z" fill="url(#paint0_linear)"/>
</g>
<path d="M61.012 58.6349C64.6406 61.0021 68.1726 63.3744 71.6114 65.7506L75.0222 60.8143C71.5392 58.4077 67.963 56.0057 64.2903 53.6097L61.012 58.6349ZM91.9547 80.6642C98.8803 86.0561 105.369 91.4551 111.461 96.8471L115.438 92.3541C109.25 86.8781 102.665 81.3987 95.6407 75.9299L91.9547 80.6642ZM129.786 114.196C135.92 120.416 141.581 126.608 146.832 132.751L151.393 128.852C146.052 122.604 140.294 116.306 134.058 109.982L129.786 114.196ZM162.553 152.541C167.753 159.588 172.485 166.539 176.85 173.359L181.904 170.124C177.475 163.204 172.668 156.143 167.381 148.979L162.553 152.541ZM189.908 195.08C194.266 202.759 198.265 210.203 202.078 217.371L207.375 214.552C203.556 207.374 199.526 199.871 195.126 192.119L189.908 195.08ZM214.165 239.854C218.53 247.706 222.906 255.078 227.583 261.831L232.516 258.415C227.997 251.89 223.729 244.709 219.409 236.939L214.165 239.854ZM244.478 281.682C250.842 287.545 257.99 292.474 266.325 296.302L268.829 290.849C261.107 287.303 254.48 282.738 248.543 277.269L244.478 281.682ZM291.405 303.744C295.517 304.417 299.847 304.907 304.417 305.207L304.81 299.22C300.419 298.932 296.282 298.462 292.375 297.823L291.405 303.744Z" fill="white"/>
<g filter="url(#filter1_d)">
<rect x="180" y="-49.9686" width="232.622" height="232.622" rx="116.311" fill="url(#paint1_linear)"/>
</g>
<g filter="url(#filter2_d)">
<rect x="38.7151" y="33.0325" width="50.362" height="50.362" rx="25.181" fill="url(#paint2_linear)"/>
</g>
<g filter="url(#filter3_d)">
<rect x="279.852" y="276.646" width="50.362" height="50.362" rx="25.181" fill="url(#paint3_linear)"/>
</g>
<g filter="url(#filter4_d)">
<path d="M192.37 267.887V303.058C192.37 305.979 191.487 308.832 189.838 311.237C188.19 313.642 185.853 315.486 183.139 316.524C180.425 317.563 177.461 317.746 174.64 317.051C171.82 316.356 169.276 314.814 167.347 312.631L150.87 293.981V338.34H83.4324V293.981L66.9556 312.631C65.026 314.814 62.4822 316.356 59.6618 317.051C56.8413 317.746 53.8773 317.563 51.1631 316.524C48.4488 315.486 46.1124 313.642 44.4639 311.237C42.8153 308.832 41.9324 305.979 41.9324 303.058V267.887H62.6824V288.762L76.1893 273.233C77.6501 271.554 79.4506 270.208 81.4703 269.286C83.49 268.364 85.6822 267.887 87.9001 267.887H104.182C104.87 267.887 105.53 267.612 106.016 267.123C106.503 266.633 106.776 265.97 106.776 265.277V252.231H127.526V265.277C127.526 265.97 127.799 266.633 128.286 267.123C128.772 267.612 129.432 267.887 130.12 267.887H146.402C148.62 267.887 150.812 268.364 152.832 269.286C154.852 270.208 156.652 271.554 158.113 273.233L171.62 288.762V267.887H192.37Z" fill="#FDC8A2"/>
<path d="M127.526 252.231V261.187C125.088 262.169 122.485 262.671 119.858 262.668H114.557C111.89 262.672 109.248 262.156 106.776 261.148V252.231H127.526Z" fill="#F9A91B"/>
<path d="M158.114 273.233C156.653 271.554 154.853 270.208 152.833 269.286C150.813 268.364 148.62 267.887 146.402 267.887H132.714L132.252 270.674C131.656 274.27 129.812 277.537 127.047 279.893C124.281 282.25 120.775 283.543 117.151 283.543C113.527 283.543 110.021 282.25 107.256 279.893C104.491 277.537 102.646 274.27 102.05 270.674L101.589 267.887H87.9004C85.6822 267.887 83.4896 268.364 81.4697 269.286C79.4497 270.208 77.649 271.554 76.1883 273.233L66.3136 284.587L79.7706 298.125L83.4324 293.981V338.34H150.87V293.981L155.752 299.506L169.026 286.152V285.78L158.114 273.233Z" fill="#375E8D"/>
<path d="M73.0574 293.981H161.245V338.34H73.0574V293.981Z" fill="#FBC673"/>
<path d="M73.0574 293.981H117.151V338.34H73.0574V293.981Z" fill="#FBC673"/>
<path d="M101.589 314.856H57.4949L73.0574 293.981H117.151L101.589 314.856Z" fill="#F9A91B"/>
<path d="M132.714 314.856H176.807L161.245 293.981H117.151L132.714 314.856Z" fill="#F9A91B"/>
<path d="M60.0886 233.965H49.7136V210.481L47.1199 205.262L49.7136 192.215H60.0886L62.6824 205.262L60.0886 210.481V233.965Z" fill="#6E72D6"/>
<path d="M54.9011 286.152C52.1495 286.152 49.5106 285.053 47.5649 283.095C45.6192 281.138 44.5261 278.483 44.5261 275.715V249.621L46.0464 248.092C47.0187 247.113 47.5649 245.786 47.5649 244.402C47.5649 243.019 47.0187 241.692 46.0464 240.713L44.5261 239.184V233.965H65.2761V239.184L63.7559 240.713C62.7836 241.692 62.2374 243.019 62.2374 244.402C62.2374 245.786 62.7836 247.113 63.7559 248.092L65.2761 249.621V275.715C65.2761 278.483 64.183 281.138 62.2374 283.095C60.2917 285.053 57.6527 286.152 54.9011 286.152Z" fill="#4649A0"/>
<path d="M47.1199 252.231H65.2761C65.964 252.231 66.6238 252.506 67.1102 252.995C67.5966 253.484 67.8699 254.148 67.8699 254.84V270.496C67.8699 271.188 67.5966 271.852 67.1102 272.341C66.6238 272.831 65.964 273.106 65.2761 273.106H41.9324V257.449C41.9324 256.065 42.4789 254.738 43.4518 253.759C44.4246 252.78 45.7441 252.231 47.1199 252.231V252.231Z" fill="#FDC8A2"/>
<path d="M193.445 292.904C194.385 290.923 194.901 288.765 194.958 286.57C195.016 284.375 194.614 282.192 193.779 280.164C192.944 278.135 191.694 276.306 190.111 274.794C188.527 273.283 186.646 272.124 184.589 271.391V237.088C188.079 235.068 190.655 231.766 191.776 227.875C192.896 223.984 192.474 219.808 190.598 216.223C188.722 212.639 185.538 209.926 181.716 208.654C177.893 207.381 173.728 207.649 170.098 209.401L180.473 219.839L173.137 227.22L162.762 216.782C161.724 218.969 161.204 221.368 161.244 223.791C161.284 226.213 161.883 228.594 162.993 230.744C164.103 232.894 165.695 234.756 167.642 236.183C169.589 237.609 171.839 238.561 174.214 238.964V271.391C172.222 272.1 170.394 273.209 168.843 274.652C167.291 276.094 166.047 277.84 165.187 279.781C164.328 281.723 163.87 283.82 163.842 285.946C163.814 288.071 164.217 290.18 165.025 292.144C165.834 294.108 167.031 295.885 168.545 297.368C170.058 298.851 171.856 300.009 173.829 300.771C175.801 301.532 177.907 301.882 180.018 301.798C182.13 301.714 184.202 301.199 186.109 300.283L175.734 289.846L183.07 282.465L193.445 292.904Z" fill="#4649A0"/>
<path d="M192.37 273.106H169.026C168.338 273.106 167.678 272.831 167.192 272.341C166.706 271.852 166.432 271.188 166.432 270.496V254.84C166.432 254.148 166.706 253.484 167.192 252.995C167.678 252.506 168.338 252.231 169.026 252.231H187.182C188.558 252.231 189.878 252.78 190.85 253.759C191.823 254.738 192.37 256.065 192.37 257.449V273.106Z" fill="#FDC8A2"/>
<path d="M93.8074 236.574C93.8074 242.111 95.9935 247.42 99.8849 251.335C103.776 255.25 109.054 257.449 114.557 257.449H119.858C125.331 257.449 130.58 255.262 134.451 251.369C138.321 247.475 140.495 242.195 140.495 236.689V202.652H93.8074V236.574Z" fill="#FDC8A2"/>
<path d="M91.2136 231.356H93.8074V215.699H91.2136C89.1499 215.699 87.1707 216.524 85.7114 217.992C84.2522 219.46 83.4324 221.451 83.4324 223.527C83.4324 225.604 84.2522 227.595 85.7114 229.063C87.1707 230.531 89.1499 231.356 91.2136 231.356Z" fill="#FDC8A2"/>
<path d="M143.089 215.699H140.495V231.356H143.089C145.152 231.356 147.132 230.531 148.591 229.063C150.05 227.595 150.87 225.604 150.87 223.527C150.87 221.451 150.05 219.46 148.591 217.992C147.132 216.524 145.152 215.699 143.089 215.699Z" fill="#FDC8A2"/>
<path d="M117.151 244.411C113.869 244.41 110.66 243.43 107.931 241.594L110.808 237.252C112.685 238.515 114.893 239.19 117.151 239.19C119.409 239.19 121.617 238.515 123.494 237.252L126.371 241.594C123.642 243.43 120.434 244.41 117.151 244.411V244.411Z" fill="#FBC673"/>
<path d="M104.182 192.215V202.652L93.8074 215.699V202.652C93.8074 199.884 94.9005 197.229 96.8461 195.272C98.7918 193.315 101.431 192.215 104.182 192.215Z" fill="#2E4F78"/>
<path d="M130.12 192.215V202.652L140.495 215.699V202.652C140.495 199.884 139.402 197.229 137.456 195.272C135.51 193.315 132.871 192.215 130.12 192.215Z" fill="#375E8D"/>
<path d="M130.12 192.215V202.652H101.589C99.5249 202.652 97.5457 201.828 96.0864 200.36C94.6272 198.892 93.8074 196.9 93.8074 194.824C93.8074 192.748 94.6272 190.757 96.0864 189.289C97.5457 187.821 99.5249 186.996 101.589 186.996H112.988C119.085 186.998 125.046 188.813 130.12 192.215Z" fill="#375E8D"/>
<path d="M125.302 202.652H119.495L111.675 186.996H112.988C114.552 186.996 116.114 187.116 117.66 187.355L125.302 202.652Z" fill="#2E4F78"/>
<path d="M112.074 202.652H106.287L98.8328 187.505C99.7127 187.167 100.647 186.995 101.589 186.996H104.37L112.074 202.652Z" fill="#2E4F78"/>
<path d="M137.901 231.356H122.339L117.151 223.527L111.964 231.356H96.4011C95.0253 231.356 93.7059 230.806 92.733 229.827C91.7602 228.848 91.2136 227.521 91.2136 226.137V207.871C91.2136 206.487 91.7602 205.16 92.733 204.181C93.7059 203.202 95.0253 202.652 96.4011 202.652H137.901C139.277 202.652 140.596 203.202 141.569 204.181C142.542 205.16 143.089 206.487 143.089 207.871V226.137C143.089 227.521 142.542 228.848 141.569 229.827C140.596 230.806 139.277 231.356 137.901 231.356Z" fill="#6E72D6"/>
<path d="M127.526 223.527C126.5 223.527 125.497 223.221 124.644 222.648C123.791 222.075 123.126 221.259 122.734 220.306C122.341 219.352 122.238 218.303 122.438 217.291C122.638 216.278 123.133 215.348 123.858 214.619C124.583 213.889 125.508 213.392 126.514 213.19C127.52 212.989 128.563 213.092 129.511 213.487C130.459 213.882 131.269 214.551 131.839 215.409C132.409 216.268 132.714 217.277 132.714 218.309C132.712 219.692 132.165 221.019 131.192 221.997C130.22 222.975 128.901 223.526 127.526 223.527V223.527Z" fill="#555ADC"/>
<path d="M106.776 223.527C105.75 223.527 104.747 223.221 103.894 222.648C103.041 222.075 102.376 221.259 101.984 220.306C101.591 219.352 101.488 218.303 101.688 217.291C101.888 216.278 102.383 215.348 103.108 214.619C103.833 213.889 104.758 213.392 105.764 213.19C106.77 212.989 107.813 213.092 108.761 213.487C109.709 213.882 110.519 214.551 111.089 215.409C111.659 216.268 111.964 217.277 111.964 218.309C111.962 219.692 111.415 221.019 110.442 221.997C109.47 222.975 108.151 223.526 106.776 223.527V223.527Z" fill="#555ADC"/>
</g>
<defs>
<filter id="filter0_d" x="-225.23" y="-252.52" width="783.385" height="629.467" filterUnits="userSpaceOnUse" color-interpolation-filters="sRGB">
<feFlood flood-opacity="0" result="BackgroundImageFix"/>
<feColorMatrix in="SourceAlpha" type="matrix" values="0 0 0 0 0 0 0 0 0 0 0 0 0 0 0 0 0 0 127 0"/>
<feOffset dy="4"/>
<feGaussianBlur stdDeviation="2"/>
<feColorMatrix type="matrix" values="0 0 0 0 0 0 0 0 0 0 0 0 0 0 0 0 0 0 0.25 0"/>
<feBlend mode="normal" in2="BackgroundImageFix" result="effect1_dropShadow"/>
<feBlend mode="normal" in="SourceGraphic" in2="effect1_dropShadow" result="shape"/>
</filter>
<filter id="filter1_d" x="176" y="-49.9686" width="240.622" height="240.622" filterUnits="userSpaceOnUse" color-interpolation-filters="sRGB">
<feFlood flood-opacity="0" result="BackgroundImageFix"/>
<feColorMatrix in="SourceAlpha" type="matrix" values="0 0 0 0 0 0 0 0 0 0 0 0 0 0 0 0 0 0 127 0"/>
<feOffset dy="4"/>
<feGaussianBlur stdDeviation="2"/>
<feColorMatrix type="matrix" values="0 0 0 0 0 0 0 0 0 0 0 0 0 0 0 0 0 0 0.25 0"/>
<feBlend mode="normal" in2="BackgroundImageFix" result="effect1_dropShadow"/>
<feBlend mode="normal" in="SourceGraphic" in2="effect1_dropShadow" result="shape"/>
</filter>
<filter id="filter2_d" x="34.7151" y="33.0325" width="58.362" height="58.362" filterUnits="userSpaceOnUse" color-interpolation-filters="sRGB">
<feFlood flood-opacity="0" result="BackgroundImageFix"/>
<feColorMatrix in="SourceAlpha" type="matrix" values="0 0 0 0 0 0 0 0 0 0 0 0 0 0 0 0 0 0 127 0"/>
<feOffset dy="4"/>
<feGaussianBlur stdDeviation="2"/>
<feColorMatrix type="matrix" values="0 0 0 0 0 0 0 0 0 0 0 0 0 0 0 0 0 0 0.25 0"/>
<feBlend mode="normal" in2="BackgroundImageFix" result="effect1_dropShadow"/>
<feBlend mode="normal" in="SourceGraphic" in2="effect1_dropShadow" result="shape"/>
</filter>
<filter id="filter3_d" x="275.852" y="276.646" width="58.362" height="58.362" filterUnits="userSpaceOnUse" color-interpolation-filters="sRGB">
<feFlood flood-opacity="0" result="BackgroundImageFix"/>
<feColorMatrix in="SourceAlpha" type="matrix" values="0 0 0 0 0 0 0 0 0 0 0 0 0 0 0 0 0 0 127 0"/>
<feOffset dy="4"/>
<feGaussianBlur stdDeviation="2"/>
<feColorMatrix type="matrix" values="0 0 0 0 0 0 0 0 0 0 0 0 0 0 0 0 0 0 0.25 0"/>
<feBlend mode="normal" in2="BackgroundImageFix" result="effect1_dropShadow"/>
<feBlend mode="normal" in="SourceGraphic" in2="effect1_dropShadow" result="shape"/>
</filter>
<filter id="filter4_d" x="30.1511" y="179.168" width="174" height="175" filterUnits="userSpaceOnUse" color-interpolation-filters="sRGB">
<feFlood flood-opacity="0" result="BackgroundImageFix"/>
<feColorMatrix in="SourceAlpha" type="matrix" values="0 0 0 0 0 0 0 0 0 0 0 0 0 0 0 0 0 0 127 0"/>
<feOffset dy="4"/>
<feGaussianBlur stdDeviation="2"/>
<feColorMatrix type="matrix" values="0 0 0 0 0 0 0 0 0 0 0 0 0 0 0 0 0 0 0.25 0"/>
<feBlend mode="normal" in2="BackgroundImageFix" result="effect1_dropShadow"/>
<feBlend mode="normal" in="SourceGraphic" in2="effect1_dropShadow" result="shape"/>
</filter>
<linearGradient id="paint0_linear" x1="166.462" y1="-252.52" x2="391.261" y2="464.93" gradientUnits="userSpaceOnUse">
<stop stop-color="#4649A0"/>
<stop offset="1" stop-color="#3236A0"/>
</linearGradient>
<linearGradient id="paint1_linear" x1="231.424" y1="263.656" x2="412.622" y2="-81.1234" gradientUnits="userSpaceOnUse">
<stop offset="0.0535715" stop-color="#4649A0"/>
<stop offset="1" stop-color="#3236A0"/>
</linearGradient>
<linearGradient id="paint2_linear" x1="49.8481" y1="100.931" x2="89.0771" y2="26.2876" gradientUnits="userSpaceOnUse">
<stop offset="0.0535715" stop-color="#4649A0"/>
<stop offset="1" stop-color="#3236A0"/>
</linearGradient>
<linearGradient id="paint3_linear" x1="290.985" y1="344.545" x2="330.214" y2="269.902" gradientUnits="userSpaceOnUse">
<stop offset="0.0535715" stop-color="#4649A0"/>
<stop offset="1" stop-color="#3236A0"/>
</linearGradient>
</defs>
</svg>
